<svg enable-background="new 0 0 32 32" viewBox="0 0 32 32" xmlns="http://www.w3.org/2000/svg"><g fill="#09b5ca"><path d="m17.1 2.8c-1.5 0-3 .3-4.5 1-3.7 1.7-6 5.4-6 9.5v1.4l-1.9 3.6c-.4.7-.4 1.4 0 2s1 .9 1.8.9h.1v2.8c0 1.5 1.3 2.8 2.8 2.8l2-.3v2.5c0 .1.1.2.2.2h12.6c.1 0 .2-.1.2-.2v-8.2c2-2 3.2-4.7 3.2-7.5-.1-5.8-4.8-10.5-10.5-10.5zm6 17-.2.2s-.1.1-.1.1v7.5h-9.8v-2.7c0-.1 0-.1-.1-.2 0 0-.1-.1-.2 0l-3.4.5c-.7 0-1.2-.6-1.2-1.3v-4.2c0-.1-.1-.2-.2-.2h-1.4c-.3 0-.4-.1-.5-.2 0-.1 0-.2.1-.4l2-3.9v-.1-1.7c0-3.4 2-6.6 5.2-8.1 1.2-.6 2.4-.8 3.8-.8 4.9 0 8.9 4 8.9 8.9 0 2.6-1.1 5-2.9 6.6z"/><path d="m22.2 8.5h-3.4c-.1 0-.2.1-.2.2v1.1c0 .1.1.2.2.2h1l-3.5 3.5-2.5-2.5c-.1-.1-.2-.1-.3 0l-2.5 2.5c-.1.1-.1.2 0 .3l.8.8c.1.1.2.1.3 0l1.6-1.6 2.5 2.5s.1.1.1.1.1 0 .1-.1l4.4-4.4v.9c0 .1.1.2.2.2h1.1c.1 0 .2-.1.2-.2v-3.3c.1-.2 0-.2-.1-.2z"/></g></svg>