<svg enable-background="new 0 0 32 32" viewBox="0 0 32 32" xmlns="http://www.w3.org/2000/svg"><g fill="#09b5ca"><path d="m10.8 9.4c.3 0 .5-.1.8-.2l1.4 1.8h5.5l1.4-1.8c.2.1.5.2.8.2 1.1 0 1.9-.9 1.9-1.9 0-1.1-.9-1.9-1.9-1.9-1.1 0-1.9.9-1.9 1.9 0 .3.1.7.2.9l-1.1 1.4h-4.3l-1.1-1.4c.2-.3.2-.6.2-.9 0-1.1-.9-1.9-1.9-1.9-1.1 0-1.9.9-1.9 1.9s.9 1.9 1.9 1.9zm9.9-2.7c.4 0 .7.3.7.7s-.3.7-.7.7-.7-.3-.7-.7.3-.7.7-.7zm-9.9 0c.4 0 .7.3.7.7s-.3.7-.7.7-.7-.3-.7-.7.3-.7.7-.7z"/><path d="m21.3 15.7h-11.1c-.2-.8-1-1.3-1.8-1.3-1.1 0-1.9.9-1.9 1.9s.9 1.9 1.9 1.9c.9 0 1.6-.6 1.8-1.3h11.2c.2.8 1 1.3 1.8 1.3 1.1 0 1.9-.9 1.9-1.9s-.9-1.9-1.9-1.9c-.9 0-1.6.5-1.9 1.3zm-12.9 1.3c-.4 0-.7-.3-.7-.7s.3-.7.7-.7.7.3.7.7-.4.7-.7.7zm15.5-.7c0 .4-.3.7-.7.7s-.7-.3-.7-.7.3-.7.7-.7c.3 0 .7.3.7.7z"/><path d="m28.1 20.2c-.9 0-1.6.6-1.8 1.3h-2.8l-2.5-2.9h-10.4l-2.5 2.9h-2.8c-.2-.8-1-1.3-1.8-1.3-1.1 0-1.9.9-1.9 1.9s.9 1.9 1.9 1.9c.9 0 1.6-.6 1.8-1.3h3.4l2.5-2.9h9.3l2.5 2.9h3.4c.2.8 1 1.3 1.8 1.3 1.1 0 1.9-.9 1.9-1.9s-1-1.9-2-1.9zm-24.7 2.6c-.4 0-.7-.3-.7-.7s.3-.7.7-.7c.3 0 .6.2.7.5v.4c-.1.3-.4.5-.7.5zm24.7 0c-.3 0-.6-.2-.7-.5v-.4c.1-.3.3-.5.7-.5s.7.3.7.7-.3.7-.7.7z"/><path d="m20.7 23.1c-.3 0-.5.1-.8.2l-1.4-1.8h-5.5l-1.4 1.8c-.2-.1-.5-.2-.8-.2-1.1 0-1.9.9-1.9 1.9 0 1.1.9 1.9 1.9 1.9 1.1 0 1.9-.9 1.9-1.9 0-.3-.1-.7-.2-.9l1.1-1.4h4.3l1.1 1.4c-.2.3-.2.6-.2.9 0 1.1.9 1.9 1.9 1.9s1.9-.9 1.9-1.9-.9-1.9-1.9-1.9zm-9.9 2.7c-.4 0-.7-.3-.7-.7s.3-.7.7-.7.7.3.7.7-.3.7-.7.7zm9.9 0c-.4 0-.7-.3-.7-.7s.3-.7.7-.7.7.3.7.7-.3.7-.7.7z"/><path d="m3.4 12.3c.9 0 1.6-.6 1.8-1.3h2.8l2.5 2.9h10.5l2.5-2.9h2.8c.2.8 1 1.3 1.8 1.3 1.1 0 1.9-.9 1.9-1.9 0-1.1-.9-1.9-1.9-1.9-.9 0-1.6.6-1.8 1.3h-3.4l-2.5 2.9h-9.3l-2.5-2.9h-3.3c-.3-.8-1-1.3-1.9-1.3-1.1 0-1.9.9-1.9 1.9 0 1.1.9 1.9 1.9 1.9zm24.7-2.6c.4 0 .7.3.7.7s-.3.7-.7.7c-.3 0-.6-.2-.7-.5v-.4c.1-.3.4-.5.7-.5zm-24.7 0c.3 0 .6.2.7.5v.4c-.1.3-.3.5-.7.5s-.7-.3-.7-.7.3-.7.7-.7z"/></g></svg>