<svg enable-background="new 0 0 32 32" viewBox="0 0 32 32" xmlns="http://www.w3.org/2000/svg"><g fill="#09b5ca"><path d="m9.2 15.3c1.1.5 2.3.7 3.6.4 2.2-.4 4.1-2.3 4.4-4.6 0-.3.1-.6.1-.9 0-1.1-.3-2.3-1-3.2-.7-1-1.6-1.7-2.7-2.1-2.3-.9-4.9-.2-6.3 1.6-.8 1-1.3 2.1-1.4 3.3-.1 1.1.2 2.3.8 3.3.6.9 1.5 1.7 2.5 2.2zm-1.6-5.7c.1-.3.1-.7.3-1 .1-.2.2-.5.4-.7 0-.1.1-.1.1-.2 0 0 0 0 0-.1.1-.1.2-.2.3-.3.2-.1.3-.2.4-.3.1 0 .1-.1.2-.1.2-.2.5-.3.7-.5.3-.1.7-.2 1-.3h1.1c.3.1.7.1 1 .3.2.1.5.2.7.4.1.1.2.1.2.2h.1c.1.1.2.2.3.3s.2.2.3.3c0 .1.1.1.1.2.2.2.3.5.4.7.1.3.2.7.3 1v.5.5c-.1.3-.1.7-.3 1-.1.2-.2.5-.4.7 0 .1-.1.1-.1.2v.1c-.1.1-.2.2-.3.3s-.2.2-.3.3c-.1 0-.1.1-.2.1-.2.2-.5.3-.7.4-.3.1-.7.2-1 .3-.4 0-.7 0-1.1 0-.3-.1-.7-.1-1-.3-.2-.1-.5-.2-.7-.4-.1 0-.1-.1-.2-.1 0 0 0 0-.1 0-.1.1-.2 0-.4-.1-.1-.1-.2-.2-.3-.3 0-.1-.1-.1-.1-.2-.2-.2-.3-.5-.4-.7-.1-.3-.2-.7-.3-1 0-.5 0-.8 0-1.2z"/><path d="m20.6 15.7c.9.4 1.9.5 2.8.3 1.7-.3 3.2-1.8 3.4-3.6 0-.3.1-.5.1-.8 0-.9-.3-1.8-.8-2.5-.6-.8-1.3-1.3-2.2-1.7-1.7-.6-3.7-.1-4.8 1.3-.6.7-1 1.6-1 2.6-.1.9.2 1.8.6 2.6.5.8 1.1 1.4 1.9 1.8zm-.8-4.4c0-.2.1-.5.2-.7s.2-.4.3-.5c0 0 .1-.1.1-.1.1-.1.1-.2.2-.2.1-.1.2-.1.2-.2s.1-.1.1-.1c.2-.1.3-.2.5-.3.3-.2.5-.2.7-.3h.8c.2 0 .5.1.7.2s.4.2.5.3c0 0 .1.1.1.1.1.1.2.1.2.2.1.1.1.2.2.2s.1.1.1.1c.1.2.2.3.3.5s.1.5.2.7v.4.4c0 .2-.1.5-.2.7s-.2.4-.3.5c0 0-.1.1-.1.1-.1.1-.1.2-.2.2-.1.1-.2.1-.2.2s-.1.1-.1.1c-.2.1-.3.2-.5.3s-.5.1-.7.2c-.3 0-.5 0-.8 0-.2 0-.5-.1-.7-.2s-.4-.2-.5-.3c0 0-.1-.1-.1-.1-.1-.1-.2-.1-.2-.2-.1-.1-.1-.2-.2-.2s-.1-.1-.1-.1c-.1-.2-.2-.3-.3-.5s-.1-.5-.2-.7-.1-.5 0-.7z"/><path d="m27.9 18c-.9-.8-2-1.2-3.2-1.2-1.4 0-2.7 0-4.1 0-.4 0-.7 0-1.1.1-.7.1-1.3.4-1.8.7-.6-.4-1.3-.7-2-.8s-1.3-.1-2-.1-1.5 0-2.2 0-1.4 0-2.1 0-1.3 0-2 .2c-2.4.6-4.3 2.6-4.7 5.1-.1.8-.1 1.6-.1 2.4v.8c.1.8.7 1.6 1.5 1.8.3.1.6.1.9.1h1.4 4.4 4.8 3 .2c.5 0 1.1-.2 1.4-.6.3-.3.5-.8.5-1.2 0-.1 0-.1 0-.2h.5 2.9 2.8.9c.3 0 .6 0 .8-.1.6-.2.9-.8.9-1.4 0-.1 0-.3 0-.4 0-.4 0-.9 0-1.3 0 0 0 0 0-.1 0-1.6-.6-3-1.6-3.8zm-8.9 7c0 .1-.1.1-.1.2s0 0-.1 0h-.1c-.1 0-.3 0-.4 0-.3 0-.7 0-1 0-1.1 0-2.3 0-3.4 0-1.4 0-2.8 0-4.2 0-1.2 0-2.4 0-3.6 0-.6 0-1.1 0-1.7 0h-.1s0 0-.1 0 0 0 0-.1v-.1c0-.3 0-.5 0-.8 0-.4 0-.8 0-1.1 0-.2 0-.5 0-.7l.3-1.2c.1-.3.3-.6.5-.8 0-.1.1-.1.1-.2 0 0 .1-.1.1-.1.1-.1.2-.3.3-.4s.2-.2.4-.3c0 0 .1 0 .1-.1l.2-.2c.3-.2.6-.3.8-.5.4-.2.8-.3 1.2-.3h1 1.4 3.3 1.2l1.2.3c.3.1.6.3.9.5 0 0 .1.1.1.1s.1.1.1.1c.1.1.2.2.3.2 0 0 .1.1.1.1l.2.2c0 .1.1.1.2.2 0 .1.1.1.1.2.2.3.3.5.4.8.1.4.3.8.3 1.2v.8.3.6zm8.2-1.8c-.7 0-1.3 0-2 0-1.5 0-2.9 0-4.4 0-.1 0-.1 0-.2 0 0-.1 0-.1 0-.2v-.1-.1c0-.2 0-.3 0-.5 0-.1 0-.2 0-.3s0-.3-.1-.4c0-.2-.1-.4-.2-.6 0-.1 0-.1-.1-.2-.2-.5-.5-1.1-.8-1.5 0-.1-.1-.1-.1-.2s-.1-.1-.1-.2c-.1-.1-.2-.2-.3-.3h.1c.2-.1.5-.2.8-.2h.8 1.1 2.6.8c.3 0 .5.1.8.2.2.1.4.2.6.3 0 0 .1.1.1.1l.3.3c.1.1.2.2.2.3s.1.1.1.1c.1.2.2.4.3.6s.2.5.2.8v.4 1 .7c-.1 0-.3 0-.5 0z"/></g></svg>