<svg enable-background="new 0 0 32 32" viewBox="0 0 32 32" xmlns="http://www.w3.org/2000/svg"><g fill="#09b5ca"><path d="m25.2 14.3c0 .2.1.4.2.5.3.3.7.3 1 0 .1-.1.2-.3.2-.5l-.1-4.9c0-.4-.3-.7-.7-.7h-4.8c-.4 0-.7.3-.7.7s.3.7.7.7h3l-6.4 6.4-1.5-1.9c-.1-.2-.3-.3-.6-.3 0 0 0 0-.1 0-.2 0-.4.1-.5.2l-6.2 6.2c-.3.3-.3.8 0 1.1s.8.3 1.1 0l5.6-5.6 1.5 1.9c.1.2.3.3.6.3.2 0 .4-.1.6-.2l7-7z"/><path d="m26.1 24.3h-19.4v-17.4c0-.4-.4-.8-.8-.8s-.8.4-.8.8v18.1c0 .4.4.8.8.8h20.1c.4 0 .8-.3.8-.8.1-.3-.3-.7-.7-.7z"/></g></svg>