<svg enable-background="new 0 0 32 32" viewBox="0 0 32 32" xmlns="http://www.w3.org/2000/svg"><g fill="#09b5ca"><path d="m18.7 13.5c.2 0 .4-.1.5-.2l6-6-.2 3.6c0 .4.3.8.7.8h.1c.4 0 .7-.3.8-.7l.4-5.7c0-.1 0-.1 0-.2v-.1c0-.1-.1-.2-.2-.3s-.2-.1-.3-.2h-.1c-.1 0-.1 0-.2 0l-5.7.5c-.4 0-.7.4-.7.8s.4.8.8.7l3.6-.3-5.9 6c-.3.3-.3.8 0 1.1.1.2.3.2.4.2z"/><path d="m12.7 17.7-6 6 .3-3.6c0-.4-.3-.8-.7-.8s-.8.3-.8.7l-.5 5.7v.2.1c0 .1.1.2.2.3.1.1.3.2.5.2h.1.1l5.7-.5c.4 0 .7-.4.7-.8s-.4-.8-.8-.7l-3.6.3 6-6c.3-.3.3-.8 0-1.1-.4-.3-.9-.3-1.2 0z"/><path d="m27 25.7-.5-5.7c0-.4-.4-.8-.8-.7-.4 0-.7.4-.7.8l.3 3.6-6-6c-.3-.3-.8-.3-1.1 0s-.3.8 0 1.1l6 6-3.6-.3c-.4 0-.8.3-.8.7s.3.8.7.8l5.7.5h.1c.2 0 .4-.1.5-.2s.1-.2.2-.3c0-.1 0-.2 0-.3z"/><path d="m5 5.3.5 5.7c0 .4.4.7.8.7h.1c.4 0 .7-.4.7-.8l-.4-3.6 6 6c.2.1.4.2.5.2.2 0 .4-.1.5-.2.3-.3.3-.8 0-1.1l-5.9-6 3.6.3c.4 0 .8-.3.8-.7s-.3-.8-.7-.8l-5.4-.4c-.3-.2-.6-.1-.9.1-.1.1-.1.2-.2.3z"/></g></svg>