<svg enable-background="new 0 0 32 32" viewBox="0 0 32 32" xmlns="http://www.w3.org/2000/svg"><g fill="#f7941d"><path d="m29 3c-.2-.2-.5-.3-.7-.2l-2.6.2c-2.2.2-4.2 1.2-5.8 2.8l-6.7 6.7-1-.3c-2.9-1-6-.2-8.1 1.9l-.2.2c-.1.1-.1.1-.2.2-.2.2-.3.5-.4.6-.2.9.3 1.9 1.2 2.2l4 1.4 4.7 4.7 1.4 4c.1.3.2.5.4.7.4.5 1.2.8 1.9.5.1-.1.5-.2.7-.5l.2-.2c2.1-2.1 2.9-5.3 1.9-8.1l-.3-1.1 6.7-6.7c1.6-1.6 2.5-3.6 2.8-5.8l.3-2.6c.1-.2 0-.5-.2-.6zm-23.6 12.4c1.6-1.7 4.1-2.3 6.3-1.5l-2.9 2.9-3.6-1.2zm11.4 10.9c-.1.1-.2.2-.2.3l-.2.2-1.3-3.7 2.9-2.9.1.1c.4 1.1.4 2.2.2 3.3-.3 1-.8 2-1.5 2.7zm10.4-20.3c-.2 1.8-1 3.4-2.3 4.7l-7.1 7.1s.1 0 0 0l-3.8 3.9-3.8-3.8 11-10.9c1.3-1.3 3-2.1 4.7-2.3l1.4-.2z"/><path d="m11.1 22.6c-.5 0-.9.4-.9.9s-.2.9-.5 1.2c-.1.1-.5.3-1.1.6s-1.3.5-2 .8c-.4.1-.8.3-1.1.4.1-.3.2-.7.4-1.1.2-.7.5-1.4.8-2s.5-1 .6-1.1c.3-.3.7-.5 1.1-.5.5 0 .9-.4.8-.9 0-.5-.4-.9-.9-.8-.8 0-1.7.4-2.3 1-.4.4-.7 1-1 1.7s-.6 1.4-.8 2.2c-.1.3-.2.6-.3.8l-.7 1.9c-.1.2 0 .6.2.8s.7.2 1 .2c.1 0 .4-.1.6-.2.5-.2 1.2-.4 1.9-.6.7-.3 1.5-.5 2.2-.8.6-.3 1.3-.6 1.7-1 .7-.7 1.1-1.6 1.1-2.5.1-.6-.3-1-.8-1z"/></g></svg>