<?xml version="1.0" encoding="utf-8"?>
<!-- Generator: Adobe Illustrator 24.3.0, SVG Export Plug-In . SVG Version: 6.00 Build 0)  -->
<svg version="1.1" id="Layer_1" xmlns="http://www.w3.org/2000/svg" xmlns:xlink="http://www.w3.org/1999/xlink" x="0px" y="0px"
	 viewBox="0 0 32 32" style="enable-background:new 0 0 32 32;" xml:space="preserve">
<style type="text/css">
	.st0{fill:#09B5CA;}
</style>
<path class="st0" d="M21,16c1.7-1.4,2.8-3.5,2.8-5.9c0-4.3-3.4-7.8-7.8-7.8s-7.8,3.4-7.8,7.8c0,2.4,1.1,4.5,2.8,5.9
	c-3.4,0.4-6,3.3-6,6.8v0v6c0,0.6,0.5,1,1,1h20c0.6,0,1-0.5,1-1v-6v0C27,19.3,24.4,16.4,21,16z M10.1,10c0-3.3,2.7-5.9,5.9-5.9
	s5.9,2.7,5.9,5.9s-2.7,6-5.9,6S10.1,13.3,10.1,10z M17.7,17.6L16,19.3l-1.7-1.7c0.6,0.1,1.1,0.2,1.7,0.2S17.1,17.7,17.7,17.6z
	 M25.1,27.6H23v-3.8c0-0.6-0.5-1-1-1c-0.6,0-1,0.5-1,1v3.8h-9.8v-3.8c0-0.6-0.5-1-1-1c-0.6,0-1,0.5-1,1v3.8H7v-4.8
	c0-3.1,2-4.4,4.8-4.8l3.4,3.4c0.4,0.4,1.1,0.4,1.4,0l3.4-3.4h0c2.9,0.3,5.1,1.7,5.1,4.8v0V27.6z"/>
</svg>
