<svg enable-background="new 0 0 32 32" viewBox="0 0 32 32" xmlns="http://www.w3.org/2000/svg"><g clip-rule="evenodd" fill="#f47a5d" fill-rule="evenodd"><path d="m31 26.2h-1v-12.4l.6.3c.5.2 1.1 0 1.3-.5s0-1.1-.5-1.3l-1.4-.7v-6.3c0-.6-.4-1-1-1h-4c-.6 0-1 .4-1 1v3.7l-12.6-5.5c-.5-.2-1.1 0-1.3.5s0 1.1.5 1.3l1.4.6v5.5l-11.2 2.3c-.5.1-.9.6-.8 1.2.1.5.6.9 1.2.8l.8-.2v10.8h-1c-.6 0-1 .4-1 1s.4 1 1 1h2 10 16 2c.6 0 1-.4 1-1s-.4-1.1-1-1.1zm-7 0h-6v-5c0-.6.4-1 1-1h4c.6 0 1 .4 1 1zm2 0v-5c0-1.7-1.3-3-3-3h-4c-1.7 0-3 1.3-3 3v5h-2v-14-5.4l10.6 4.6 3.4 1.5v13.3zm0-19.9h2v4.4l-2-.9zm-22 8.8 8-1.6v12.7h-8z"/><path d="m17.1 10.8c-.8 0-1.5.7-1.5 1.5s.7 1.5 1.5 1.5 1.5-.7 1.5-1.5-.7-1.5-1.5-1.5z"/></g></svg>