<svg enable-background="new 0 0 32 32" viewBox="0 0 32 32" xmlns="http://www.w3.org/2000/svg"><g fill="none" stroke="#09b5ca" stroke-miterlimit="10" stroke-width="2"><path d="m26.5 13.3c.5 1.4.8 2.9.8 4.5 0 7.1-5.8 12.8-12.8 12.8s-12.9-5.7-12.9-12.8 5.8-12.8 12.9-12.8c1.2 0 2.5.2 3.6.5"/><path d="m21.9 14.3c.5 1 .8 2.2.8 3.5 0 4.5-3.7 8.2-8.2 8.2s-8.2-3.7-8.2-8.2 3.7-8.2 8.2-8.2c1 0 1.9.2 2.8.5"/><circle cx="14.5" cy="17.8" r="3.6"/><path d="m14.6 17.2 12.2-12.4-.7-3.8-6.1 6.3v4.4l4.5-.2 6.1-6-3.8-.7" stroke-linecap="round" stroke-linejoin="round"/></g></svg>