<svg enable-background="new 0 0 32 32" viewBox="0 0 32 32" xmlns="http://www.w3.org/2000/svg"><g fill="none" stroke="#09b5ca" stroke-miterlimit="10" stroke-width="2"><path d="m4.3 30.9h-2.2c-.6 0-1-.4-1-1v-9.1c0-.6.4-1 1-1h2.2c.6 0 1 .4 1 1v9.1c0 .5-.4 1-1 1z"/><g stroke-linecap="round" stroke-linejoin="round"><path d="m5.3 20.8s5.1-2.2 9 .4h2.4s4.1-.2 4.1 3.6c0 0-.2.6-1.2.6h-6.5"/><path d="m5.3 29.9h13.2s2.4 0 4.6-2.5l7.4-8.6s.7-1.6-.3-2.5c0 0-1.5-1.1-3.1 0l-7.4 5.9"/><path d="m18 7.4c-.5-1.8-4.2-1.8-4.6 0 0 0-.5 2 2.3 2 2.5 0 2.3 1.6 2.3 1.6s.1 1.8-2.3 1.8c0 0-1.9.2-2.3-1.5"/><path d="m15.7 5.5v.5"/><path d="m15.7 13.3v-.5"/><circle cx="15.7" cy="9.4" r="7.6"/></g></g></svg>