<svg enable-background="new 0 0 32 32" viewBox="0 0 32 32" xmlns="http://www.w3.org/2000/svg"><g fill="none" stroke="#09b5ca" stroke-miterlimit="10"><g stroke-width="2"><path d="m10.3 12.7v6.5l5.6 3.2 5.7-3.2v-6.5l-5.7-3.2z"/><circle cx="16" cy="3.9" r="2.6"/><circle cx="16" cy="28" r="2.6"/><circle cx="5.5" cy="10.1" r="2.6"/><circle cx="26.5" cy="21.8" r="2.6"/><circle cx="5.6" cy="22" r="2.6"/><circle cx="26.5" cy="9.9" r="2.6"/><path d="m7.7 11.3 2.6 1.4"/><path d="m16 6.5v3"/><path d="m24.2 11.2-2.6 1.5"/><path d="m21.7 19.4 2.4 1.5"/><path d="m15.9 22.4v3"/><path d="m10.3 19.2-2.5 1.5"/><path d="m13.5 4.5-6.3 3.6"/><path d="m24.6 8.1-6.1-3.5"/><path d="m27.1 19.3v-6.9"/><path d="m18.5 27.3 6.3-3.6"/><path d="m7.3 23.8 6.2 3.6"/><path d="m4.8 12.6v6.8"/></g><path d="m13.8 15.9 1.5 1.5 2.7-2.8" stroke-linecap="round" stroke-linejoin="round" stroke-width="1.4"/></g></svg>