<svg enable-background="new 0 0 32 32" viewBox="0 0 32 32" xmlns="http://www.w3.org/2000/svg"><g fill="none" stroke="#09b5ca" stroke-width="2"><path d="m14.9 3.8-6.6 6.7"/><path d="m20.9 9.7-6.6 6.8"/><path d="m18.8 12.1 11.4 10.6c.8.8.8 2.2 0 3s-2.2.8-3 0l-10.6-11.5"/><path d="m14.1 18.3c-.6.6-1.5.6-2.1 0l-5.7-5.7c-.6-.6-.6-1.5 0-2.1s1.5-.6 2.1 0l5.7 5.7c.6.6.6 1.5 0 2.1z"/><path d="m22.7 9.6c-.6.6-1.5.6-2.1 0l-5.6-5.7c-.6-.6-.6-1.5 0-2.1s1.5-.6 2.1 0l5.7 5.7c.5.6.5 1.5-.1 2.1z"/><path d="m14.7 30.8h-12.1c-.7 0-1.3-.6-1.3-1.3v-.5c0-.7.6-1.3 1.3-1.3h12.2c.7 0 1.3.6 1.3 1.3v.5c-.1.7-.7 1.3-1.4 1.3z"/><path d="m13.1 27c0-1.2-1-2.2-2.2-2.2h-4.7c-1.2 0-2.2 1-2.2 2.2"/></g></svg>