<svg enable-background="new 0 0 32 32" viewBox="0 0 32 32" xmlns="http://www.w3.org/2000/svg"><path d="m21 16c1.7-1.4 2.8-3.5 2.8-5.9 0-4.3-3.4-7.8-7.8-7.8s-7.8 3.4-7.8 7.8c0 2.4 1.1 4.5 2.8 5.9-3.4.4-6 3.3-6 6.8v6c0 .6.5 1 1 1h20c.6 0 1-.5 1-1v-6c0-3.5-2.6-6.4-6-6.8zm-10.9-6c0-3.3 2.7-5.9 5.9-5.9s5.9 2.7 5.9 5.9-2.7 6-5.9 6-5.9-2.7-5.9-6zm7.6 7.6-1.7 1.7-1.7-1.7c.6.1 1.1.2 1.7.2s1.1-.1 1.7-.2zm7.4 10h-2.1v-3.8c0-.6-.5-1-1-1-.6 0-1 .5-1 1v3.8h-9.8v-3.8c0-.6-.5-1-1-1-.6 0-1 .5-1 1v3.8h-2.2v-4.8c0-3.1 2-4.4 4.8-4.8l3.4 3.4c.4.4 1.1.4 1.4 0l3.4-3.4c2.9.3 5.1 1.7 5.1 4.8z" fill="#09b5ca"/></svg>