<svg enable-background="new 0 0 505.5 508" viewBox="0 0 505.5 508" xmlns="http://www.w3.org/2000/svg"><g fill="none" stroke="#000" stroke-miterlimit="10" stroke-width=".5"><path d="m30.9 248.6c2.4-118.7 98.2-214.5 216.9-216.9"/><path d="m247.8 474.6c-118.7-2.4-214.5-98.2-216.9-216.9"/><path d="m473.8 257.7c-2.4 118.7-98.2 214.4-216.8 216.9"/><path d="m256.9 31.7c118.7 2.4 214.5 98.2 216.9 216.9"/><path d="m37.8 247.5c2.9-114.1 94.9-206 208.9-209"/><path d="m246.8 467.7c-114.1-2.9-206-94.8-209-208.9"/><path d="m466.9 258.7c-2.9 114.1-94.8 206.1-208.9 209"/><path d="m258 38.6c114.1 2.9 206 94.9 208.9 209"/><path d="m79.3 240.9c6-86.1 74.8-154.9 160.8-160.9"/><path d="m240.2 426.2c-86.1-6-154.9-74.8-160.9-160.8"/><path d="m425.4 265.5c-6 86-74.8 154.7-160.8 160.7"/><path d="m264.6 80.1c86.1 6 154.9 74.8 160.8 160.9"/><path d="m181.7 168.9c13.6-11.4 30-19.6 48.1-23.4"/><path d="m144.7 230.6c3.8-18.1 12-34.6 23.6-48.3"/><path d="m168.1 323.9c-11.4-13.6-19.6-30-23.4-48.1"/><path d="m229.8 360.8c-18.1-3.8-34.6-12-48.3-23.5"/><path d="m323.3 337.3c-13.7 11.5-30.2 19.8-48.3 23.6"/><path d="m360 275.8c-3.8 18-12 34.4-23.4 48"/><path d="m336.5 182.3c11.5 13.7 19.8 30.1 23.5 48.3"/><path d="m275 145.5c18 3.8 34.5 12 48.1 23.4"/><path d="m171 160.9c16.8-14.9 37.8-25.2 60.9-29"/><path d="m131.1 232.7c3.9-23.3 14.3-44.3 29.3-61.2"/><path d="m160.1 334.5c-14.8-16.8-25.1-37.8-29-60.9"/><path d="m232 374.5c-23.2-3.9-44.3-14.3-61.2-29.3"/><path d="m334 345.2c-16.9 15-37.9 25.4-61.1 29.3"/><path d="m373.7 273.6c-3.9 23.1-14.2 44-29 60.9"/><path d="m344.4 171.5c15 16.9 25.4 37.9 29.3 61.2"/><path d="m272.8 131.9c23.1 3.9 44.1 14.2 60.9 29"/><circle cx="252.4" cy="253.2" r="31.8"/><circle cx="252.4" cy="253.2" r="13.8"/><path d="m235.2 226.5-13.8-28 31-195.5v218.4"/><path d="m269.6 226.5 13.8-28-31-195.5"/><path d="m252.4 216.1 5.9 5.9"/><path d="m252.4 211.2 13.1 13"/><path d="m252.4 206.2 18.1 18.1"/><path d="m252.4 201.3 19.8 19.7"/><path d="m252.4 196.5 21.4 21.4"/><path d="m252.4 191.7 23 23"/><path d="m252.4 186.9 24.6 24.6"/><path d="m252.4 182 26.2 26.2"/><path d="m252.4 177.2 27.8 27.8"/><path d="m252.4 172.4 29.4 29.4"/><path d="m252.4 162.9 30.1 30.1"/><path d="m252.4 157.9 29.2 29.2"/><path d="m252.4 153.2 28.3 28.3"/><path d="m252.4 148.2 27.4 27.4"/><path d="m252.4 143.6 26.5 26.5"/><path d="m252.4 138.8 25.6 25.6"/><path d="m252.4 133.9 24.7 24.7"/><path d="m252.4 129 23.8 23.8"/><path d="m252.4 124.3 22.9 22.9"/><path d="m252.4 119.3 21.9 21.9"/><path d="m252.4 114.7 21.1 21.1"/><path d="m252.4 109.9 20.2 20.2"/><path d="m252.4 105.1 19.2 19.2"/><path d="m252.4 100.4 18.4 18.4"/><path d="m252.4 95.5 17.4 17.4"/><path d="m252.4 90.5 16.5 16.5"/><path d="m252.4 85.7 15.6 15.6"/><path d="m252.4 80.7 14.7 14.7"/><path d="m252.4 76.1 13.8 13.8"/><path d="m252.4 71.4 12.9 12.9"/><path d="m252.4 66.4 12 12"/><path d="m252.4 61.5 11 10.9"/><path d="m252.4 56.7 10.1 10.1"/><path d="m252.4 52 9.2 9.3"/><path d="m252.4 47 8.3 8.3"/><path d="m252.4 42.3 7.4 7.4"/><path d="m252.4 37.5 6.5 6.5"/><path d="m252.4 32.9 5.7 5.7"/><path d="m252.4 28 4.7 4.8"/><path d="m252.4 23.1 3.8 3.8"/><path d="m252.4 18.1 2.9 2.9"/><path d="m252.4 167.6 31 31"/><path d="m269.6 280 13.8 27.9-31 195.5v-218.4"/><path d="m235.2 280-13.8 27.9 31 195.5"/><path d="m252.4 290.4-5.9-5.9"/><path d="m252.4 295.3-13.1-13.1"/><path d="m252.4 300.3-18.1-18.2"/><path d="m252.4 305.1-19.7-19.7"/><path d="m252.4 310-21.4-21.4"/><path d="m252.4 314.7-23-23"/><path d="m252.4 319.6-24.6-24.6"/><path d="m252.4 324.4-26.2-26.2"/><path d="m252.4 329.2-27.8-27.8"/><path d="m252.4 334-29.4-29.3"/><path d="m252.4 343.5-30.1-30.1"/><path d="m252.4 348.5-29.2-29.1"/><path d="m252.4 353.2-28.3-28.2"/><path d="m252.4 358.2-27.4-27.3"/><path d="m252.4 362.8-26.5-26.4"/><path d="m252.4 367.6-25.6-25.6"/><path d="m252.4 372.5-24.7-24.7"/><path d="m252.4 377.4-23.8-23.8"/><path d="m252.4 382.1-22.9-22.9"/><path d="m252.4 387.1-21.9-21.9"/><path d="m252.4 391.7-21-21.1"/><path d="m252.4 396.5-20.1-20.1"/><path d="m252.4 401.4-19.2-19.3"/><path d="m252.4 406.1-18.4-18.4"/><path d="m252.4 411-17.4-17.5"/><path d="m252.4 415.9-16.5-16.5"/><path d="m252.4 420.7-15.6-15.6"/><path d="m252.4 425.7-14.6-14.7"/><path d="m252.4 430.3-13.8-13.8"/><path d="m252.4 435.1-12.9-12.9"/><path d="m252.4 440-11.9-11.9"/><path d="m252.4 445-10.9-11"/><path d="m252.4 449.7-10.1-10.1"/><path d="m252.4 454.4-9.2-9.2"/><path d="m252.4 459.4-8.3-8.3"/><path d="m252.4 464.2-7.4-7.4"/><path d="m252.4 468.9-6.5-6.5"/><path d="m252.4 473.5-5.7-5.7"/><path d="m252.4 478.4-4.7-4.7"/><path d="m252.4 483.3-3.8-3.8"/><path d="m252.4 488.3-2.8-2.8"/><path d="m252.4 338.8-31-31"/><path d="m279.2 236 27.9-13.8 195.5 31h-218.4"/><path d="m279.2 270.4 27.9 13.8 195.5-31"/><path d="m289.6 253.2-5.9 5.9"/><path d="m294.5 253.2-13.1 13.1"/><path d="m299.5 253.2-18.2 18.2"/><path d="m304.3 253.2-19.7 19.8"/><path d="m309.2 253.2-21.4 21.4"/><path d="m313.9 253.2-23 23"/><path d="m318.8 253.2-24.6 24.6"/><path d="m323.6 253.2-26.2 26.2"/><path d="m328.4 253.2-27.8 27.8"/><path d="m333.2 253.2-29.3 29.4"/><path d="m342.7 253.2-30.1 30.2"/><path d="m347.7 253.2-29.2 29.2"/><path d="m352.4 253.2-28.3 28.3"/><path d="m357.4 253.2-27.3 27.4"/><path d="m362 253.2-26.5 26.5"/><path d="m366.8 253.2-25.6 25.6"/><path d="m371.7 253.2-24.7 24.7"/><path d="m376.6 253.2-23.8 23.8"/><path d="m381.3 253.2-22.9 22.9"/><path d="m386.3 253.2-21.9 21.9"/><path d="m390.9 253.2-21.1 21.1"/><path d="m395.7 253.2-20.1 20.2"/><path d="m400.6 253.2-19.3 19.3"/><path d="m405.3 253.2-18.4 18.4"/><path d="m410.2 253.2-17.5 17.4"/><path d="m415.1 253.2-16.5 16.5"/><path d="m419.9 253.2-15.6 15.6"/><path d="m424.9 253.2-14.7 14.7"/><path d="m429.5 253.2-13.8 13.8"/><path d="m434.3 253.2-12.9 12.9"/><path d="m439.2 253.2-11.9 12"/><path d="m444.2 253.2-11 11"/><path d="m448.9 253.2-10.1 10.1"/><path d="m453.6 253.2-9.2 9.3"/><path d="m458.6 253.2-8.3 8.3"/><path d="m463.4 253.2-7.4 7.4"/><path d="m468.1 253.2-6.5 6.5"/><path d="m472.7 253.2-5.7 5.7"/><path d="m477.6 253.2-4.7 4.7"/><path d="m482.5 253.2-3.8 3.8"/><path d="m487.5 253.2-2.8 2.9"/><path d="m338 253.2-31 31"/><path d="m225.7 270.4-28 13.8-195.5-31h218.4"/><path d="m225.7 236-28-13.8-195.5 31"/><path d="m215.2 253.2 6-5.9"/><path d="m210.3 253.2 13.1-13"/><path d="m205.4 253.2 18.1-18.1"/><path d="m200.5 253.2 19.7-19.7"/><path d="m195.7 253.2 21.3-21.4"/><path d="m190.9 253.2 23-23"/><path d="m186.1 253.2 24.5-24.6"/><path d="m181.2 253.2 26.2-26.2"/><path d="m176.4 253.2 27.8-27.8"/><path d="m171.6 253.2 29.4-29.4"/><path d="m162.1 253.2 30.1-30.1"/><path d="m157.1 253.2 29.2-29.1"/><path d="m152.4 253.2 28.3-28.3"/><path d="m147.4 253.2 27.4-27.3"/><path d="m142.8 253.2 26.5-26.5"/><path d="m138 253.2 25.6-25.6"/><path d="m133.1 253.2 24.7-24.7"/><path d="m128.2 253.2 23.8-23.8"/><path d="m123.5 253.2 22.9-22.8"/><path d="m118.5 253.2 21.9-21.9"/><path d="m113.9 253.2 21.1-21"/><path d="m109.1 253.2 20.2-20.1"/><path d="m104.3 253.2 19.2-19.2"/><path d="m99.6 253.2 18.3-18.4"/><path d="m94.7 253.2 17.4-17.4"/><path d="m89.7 253.2 16.5-16.5"/><path d="m84.9 253.2 15.6-15.6"/><path d="m79.9 253.2 14.7-14.6"/><path d="m75.3 253.2 13.8-13.8"/><path d="m70.6 253.2 12.9-12.9"/><path d="m65.6 253.2 12-11.9"/><path d="m60.7 253.2 10.9-10.9"/><path d="m55.9 253.2 10.1-10.1"/><path d="m51.2 253.2 9.2-9.2"/><path d="m46.2 253.2 8.3-8.3"/><path d="m41.4 253.2 7.5-7.4"/><path d="m36.7 253.2 6.5-6.5"/><path d="m32.1 253.2 5.7-5.7"/><path d="m27.2 253.2 4.8-4.7"/><path d="m22.3 253.2 3.8-3.8"/><path d="m17.3 253.2 2.9-2.8"/><path d="m166.8 253.2 31-31"/><path d="m130 130.3 100.2 100.2"/><path d="m130 130.3 67.7 91.9"/><path d="m221.4 198.5-91.4-68.2"/><path d="m375.3 375.6-100.2-100.1"/><path d="m375.3 375.6-91.9-67.7"/><path d="m307.1 284.2 68.2 91.4"/><path d="m129.5 375.6 100.2-100.1"/><path d="m129.5 375.6 91.9-67.7"/><path d="m197.7 284.2-68.2 91.4"/><path d="m374.8 130.3-100.2 100.2"/><path d="m374.8 130.3-67.7 91.9"/><path d="m283.4 198.5 91.4-68.2"/><path d="m237 32.2.8 12.1"/><path d="m229.3 32.9 1.2 12"/><path d="m221.6 33.9 1.7 11.9"/><path d="m213.9 35.1 2.1 11.9"/><path d="m206.4 36.5 2.5 11.9"/><path d="m198.8 38.3 2.9 11.7"/><path d="m191.4 40.3 3.3 11.6"/><path d="m184 42.5 3.7 11.5"/><path d="m176.7 45.1 4.1 11.3"/><path d="m169.4 47.8 4.6 11.2"/><path d="m162.3 50.9 4.9 11"/><path d="m155.3 54.1 5.3 10.9"/><path d="m148.4 57.6 5.7 10.7"/><path d="m141.7 61.4 6 10.4"/><path d="m135 65.4 6.4 10.2"/><path d="m128.6 69.6 6.7 10"/><path d="m122.2 74 7.1 9.8"/><path d="m116 78.7 7.5 9.5"/><path d="m110 83.5 7.8 9.3"/><path d="m104.2 88.6 8.1 9"/><path d="m98.5 93.9 8.4 8.7"/><path d="m93.1 99.3 8.7 8.4"/><path d="m87.8 105 9 8.1"/><path d="m82.7 110.8 9.3 7.8"/><path d="m77.9 116.8 9.5 7.5"/><path d="m73.2 123 9.8 7.1"/><path d="m68.8 129.3 10 6.8"/><path d="m64.6 135.8 10.2 6.4"/><path d="m60.6 142.5 10.4 6"/><path d="m56.8 149.2 10.7 5.7"/><path d="m53.3 156.1 10.9 5.3"/><path d="m50.1 163.1 11 4.9"/><path d="m47 170.2 11.2 4.6"/><path d="m44.3 177.4 11.3 4.2"/><path d="m41.8 184.8 11.4 3.7"/><path d="m39.5 192.2 11.6 3.3"/><path d="m37.5 199.6 11.7 2.9"/><path d="m35.8 207.2 11.8 2.5"/><path d="m34.3 214.7 11.9 2.1"/><path d="m33.1 222.4 11.9 1.7"/><path d="m32.1 230.1 12 1.2"/><path d="m31.5 237.8 12 .8"/><path d="m31.5 268.7 12-.9"/><path d="m32.1 276.4 12-1.3"/><path d="m33.1 284 11.9-1.6"/><path d="m34.3 291.7 11.9-2.1"/><path d="m35.8 299.3 11.8-2.6"/><path d="m37.5 306.8 11.7-2.9"/><path d="m39.5 314.3 11.6-3.4"/><path d="m41.8 321.7 11.4-3.8"/><path d="m44.3 329 11.3-4.2"/><path d="m47 336.2 11.2-4.5"/><path d="m50.1 343.3 11-4.9"/><path d="m53.3 350.3 10.9-5.3"/><path d="m56.8 357.2 10.7-5.7"/><path d="m60.6 364 10.4-6.1"/><path d="m64.6 370.6 10.2-6.4"/><path d="m68.8 377.1 10-6.8"/><path d="m73.2 383.4 9.8-7.1"/><path d="m77.9 389.6 9.5-7.5"/><path d="m82.7 395.6 9.3-7.8"/><path d="m87.8 401.4 9-8.1"/><path d="m93.1 407.1 8.7-8.4"/><path d="m98.5 412.5 8.4-8.7"/><path d="m104.2 417.8 8.1-9"/><path d="m110 422.9 7.8-9.3"/><path d="m116 427.7 7.5-9.5"/><path d="m122.2 432.4 7.1-9.8"/><path d="m128.6 436.8 6.7-10"/><path d="m135 441 6.4-10.2"/><path d="m141.7 445 6-10.4"/><path d="m148.4 448.8 5.7-10.7"/><path d="m155.3 452.3 5.3-10.9"/><path d="m162.3 455.6 4.9-11.1"/><path d="m169.4 458.6 4.6-11.2"/><path d="m176.7 461.3 4.1-11.3"/><path d="m184 463.9 3.7-11.5"/><path d="m191.4 466.1 3.3-11.6"/><path d="m198.8 468.1 2.9-11.7"/><path d="m206.4 469.9 2.5-11.9"/><path d="m213.9 471.3 2.1-11.9"/><path d="m221.6 472.5 1.7-11.9"/><path d="m229.3 473.5 1.2-12"/><path d="m237 474.2.8-12.1"/><path d="m267.9 474.2-.9-12.1"/><path d="m275.6 473.5-1.3-12"/><path d="m283.2 472.5-1.6-11.9"/><path d="m290.9 471.3-2.1-11.9"/><path d="m298.5 469.9-2.5-11.9"/><path d="m306 468.1-2.9-11.7"/><path d="m313.5 466.1-3.4-11.6"/><path d="m320.9 463.9-3.8-11.5"/><path d="m328.2 461.3-4.2-11.3"/><path d="m335.4 458.6-4.5-11.2"/><path d="m342.5 455.6-4.9-11.1"/><path d="m349.5 452.3-5.3-10.9"/><path d="m356.4 448.8-5.7-10.7"/><path d="m363.2 445-6.1-10.4"/><path d="m369.8 441-6.4-10.2"/><path d="m376.3 436.8-6.8-10"/><path d="m382.6 432.4-7.1-9.8"/><path d="m388.8 427.7-7.5-9.5"/><path d="m394.8 422.9-7.8-9.3"/><path d="m400.6 417.8-8.1-9"/><path d="m406.3 412.5-8.4-8.7"/><path d="m411.7 407.1-8.6-8.4"/><path d="m417 401.4-9-8.1"/><path d="m422.1 395.6-9.3-7.8"/><path d="m427 389.6-9.6-7.5"/><path d="m431.6 383.4-9.8-7.1"/><path d="m436 377.1-10-6.8"/><path d="m440.3 370.6-10.3-6.4"/><path d="m444.2 364-10.4-6.1"/><path d="m448 357.2-10.7-5.7"/><path d="m451.5 350.3-10.9-5.3"/><path d="m454.8 343.3-11.1-4.9"/><path d="m457.8 336.2-11.2-4.5"/><path d="m460.6 329-11.4-4.2"/><path d="m463.1 321.7-11.5-3.8"/><path d="m465.3 314.3-11.6-3.4"/><path d="m467.3 306.8-11.7-2.9"/><path d="m469.1 299.3-11.8-2.6"/><path d="m470.5 291.7-11.9-2.1"/><path d="m471.8 284-12-1.6"/><path d="m472.7 276.4-12-1.3"/><path d="m473.4 268.7-12.1-.9"/><path d="m473.4 237.8-12.1.8"/><path d="m472.7 230.1-12 1.2"/><path d="m471.8 222.4-12 1.7"/><path d="m470.5 214.7-11.9 2.1"/><path d="m469.1 207.2-11.8 2.5"/><path d="m467.3 199.6-11.7 2.9"/><path d="m465.3 192.2-11.6 3.3"/><path d="m463.1 184.8-11.5 3.7"/><path d="m460.6 177.4-11.4 4.2"/><path d="m457.8 170.2-11.2 4.6"/><path d="m454.8 163.1-11.1 4.9"/><path d="m451.5 156.1-10.9 5.3"/><path d="m448 149.2-10.7 5.7"/><path d="m444.2 142.5-10.4 6"/><path d="m440.3 135.8-10.3 6.4"/><path d="m436 129.3-10 6.8"/><path d="m431.6 123-9.8 7.1"/><path d="m427 116.8-9.6 7.5"/><path d="m422.1 110.8-9.3 7.8"/><path d="m417 105-9 8.1"/><path d="m411.7 99.3-8.6 8.4"/><path d="m406.3 93.9-8.4 8.7"/><path d="m400.6 88.6-8.1 9"/><path d="m394.8 83.5-7.8 9.3"/><path d="m388.8 78.7-7.5 9.5"/><path d="m382.6 74-7.1 9.8"/><path d="m376.3 69.6-6.8 10"/><path d="m369.8 65.4-6.4 10.2"/><path d="m363.2 61.4-6.1 10.4"/><path d="m356.4 57.6-5.7 10.7"/><path d="m349.5 54.1-5.3 10.9"/><path d="m342.5 50.9-4.9 11"/><path d="m335.4 47.8-4.5 11.2"/><path d="m328.2 45.1-4.2 11.3"/><path d="m320.9 42.5-3.8 11.5"/><path d="m313.5 40.3-3.4 11.6"/><path d="m306 38.3-2.9 11.7"/><path d="m298.5 36.5-2.5 11.9"/><path d="m290.9 35.1-2.1 11.9"/><path d="m283.2 33.9-1.6 11.9"/><path d="m275.6 32.9-1.3 12"/><path d="m267.9 32.2-.9 12.1"/></g></svg>