<svg enable-background="new 0 0 32 32" viewBox="0 0 32 32" xmlns="http://www.w3.org/2000/svg"><path d="m27.6 7.2-11.6-4.8s-11.6 4.8-11.6 4.8v10.7c0 6.4 5.2 11.6 11.6 11.6s11.6-5.2 11.6-11.6z" style="fill:none;stroke:#09b5ca;stroke-width:2;stroke-linecap:round;stroke-linejoin:round;stroke-miterlimit:10"/><path d="m19.7 15v-1.5c0-2-1.7-3.7-3.7-3.7s-3.7 1.7-3.7 3.7v1.5c-.8.2-1.4.9-1.4 1.7v3.6c0 1 .8 1.8 1.8 1.8h6.6c1 0 1.8-.8 1.8-1.8v-3.6c0-.8-.6-1.6-1.4-1.7zm-5.8-1.5c0-1.1.9-2.1 2.1-2.1s2 1 2 2.1v1.4h-4.1zm5.5 6.8c0 .1-.1.2-.2.2h-6.6c-.1 0-.2-.1-.2-.2v-3.6c0-.1.1-.2.2-.2h6.6c.1 0 .2.1.2.2z" fill="#09b5ca"/></svg>