<svg enable-background="new 0 0 32 32" viewBox="0 0 32 32" xmlns="http://www.w3.org/2000/svg"><circle cx="7.6" cy="24.2" fill="#09b5ca" r="1.2"/><g style="fill:none;stroke:#09b5ca;stroke-width:2;stroke-linecap:round;stroke-linejoin:round;stroke-miterlimit:10"><path d="m11.3 14.6s-4 .5-6.6-.3c0 0-1.6 8.7.1 12.8 0 0 3.3 1.5 6.8-.5h12.7s1.8-.4 1.3-2.8c0 0 1.7-1 1.2-3.2 0 0 1.6-1.7.8-3.6 3.3-5.8-6.5-4.2-8.1-3.9 0-2.8 2.4-6.4-2.7-8.5 0 0-1.2.2-1.2.7 0-.1.6 7-4.3 9.3z"/><path d="m11.3 14.6s-.9 7.1.3 12"/></g></svg>