<svg enable-background="new 0 0 32 32" viewBox="0 0 32 32" xmlns="http://www.w3.org/2000/svg"><g fill="#09b5ca"><path d="m7.6 25.4c.4 0 .8-.2 1-.5.1-.1.3-.4.2-.7-.1-.8-.5-1.2-1.1-1.2-.5 0-.9.2-1.1.4s-.3.5-.2.8c0 .8.5 1.2 1.2 1.2z"/><path d="m28.4 16.9c.3-.6.5-1.3.5-1.8 0-1.6-.8-2.6-2.4-2.9-.6-.1-1.3-.2-2.1-.2-1.1 0-2.4 0-3.8.1h-.3v-.2c.1-.5.2-1.2.4-1.9.7-2.7-1.1-5.1-3.1-6.1-.8-.4-1.6-.3-2.3.3-.2.2-.4.4-.4.5-.1.1-.1.3-.1.4v.4 1.2.8c-.1 1.4-.4 2.2-1.2 3.8-.3.5-.7 1-1.2 1.6-.2.2-.5.5-.7.7l-.1.1h-.1c-.1 0-.2-.1-.4 0-2.9.3-4.2.2-6.3-.3-.1 0-.1 0-.2 0s-.3 0-.4.1c-.2.1-.3.3-.3.5-1 6.1-1 10 .1 13.5.1.2.3.5.6.5 4 .5 4.8.4 7.3-.6.1 0 .2-.1.3-.2l.1-.1h.1c3 .3 9.7.3 11.5.1h.1.3c.2 0 .3-.1.5-.1 1.1-.4 1.6-1.4 1.6-3v-.1h.1c1-.8 1.3-1.8 1-3.2v-.1l.1-.1c.9-.8 1.3-2.5.8-3.7zm-17.8 9.4c-.9.3-1.5.5-2.5.5-.7 0-1.5-.1-2.7-.2h-.1v-.1c-.8-2.9-.8-6.3 0-11.2v-.2h.2c1.5.3 2.8.4 4.7.2h.2v.2c-.4 3.4-.3 8 .4 10.6v.1zm16.3-8.8c.3.3.1 1.2.1 1.3-.1.3-.2.7-.5.8-.2 0-.4.2-.5.4s-.1.4-.1.6c.4 1.2.2 1.9-.7 2.5-.2.2-.3.4-.3.7.1 1.2-.1 1.8-.6 1.9-.1 0-.2.1-.5.1-.1 0-.1 0-.2 0-.7.1-2.4.2-4.3.2-2.6 0-5.5-.1-7.1-.3h-.1v-.1c-.6-2.5-.7-6.8-.3-9.8v-.1c.1-.1.2-.2.4-.3.4-.4.9-.8 1.2-1.1.7-.7 1.2-1.3 1.5-2 1-1.8 1.3-2.8 1.4-4.4 0-.3 0-.6 0-.9 0-.4 0-.8 0-1.3v-.1c.2-.3.4-.2.6-.1 1.5.7 2.7 2.4 2.3 4.3-.4 1.7-.6 2.8-.5 3.4 0 .1.1.2.1.3.2.3.5.4.8.4h.3c.2 0 .5 0 .8-.1 1.3-.1 2.5-.1 3.6-.1.7 0 1.3.1 1.9.2.9.1 1.2.5 1.1 1.4 0 .5-.2 1.1-.4 1.3s-.2.4-.2.6c0-.1.1.2.2.3z"/></g></svg>