<svg enable-background="new 0 0 32 32" viewBox="0 0 32 32" xmlns="http://www.w3.org/2000/svg"><g fill="#09b5ca"><path d="m28 6.4-11.7-4.8c-.2-.1-.4-.1-.7 0l-11.6 4.8c-.3.2-.5.5-.5.8v10.8c0 6.9 5.6 12.5 12.5 12.5s12.5-5.6 12.5-12.5v-10.8c0-.3-.2-.6-.5-.8zm-1.2 11.6c0 6-4.9 10.9-10.9 10.9-5.9 0-10.8-4.9-10.8-10.9v-10.3l10.9-4.5 10.9 4.5v10.3z"/><path d="m15.2 10.9v7.9l-1.9-2.1c-.1-.2-.3-.3-.5-.3s-.4.1-.5.3c-.3.4-.3 1 0 1.4l3.2 3.6c.1.1.3.3.6.3s.4-.2.5-.3l3.2-3.6c.3-.4.3-1 0-1.4-.1-.2-.3-.3-.5-.3s-.4.1-.5.3l-1.9 2.1v-7.9c0-.5-.4-.9-.8-.9-.5 0-.9.4-.9.9z"/></g></svg>