<svg enable-background="new 0 0 32 32" viewBox="0 0 32 32" xmlns="http://www.w3.org/2000/svg"><g fill="#09b5ca"><path d="m30.5 14.8c-.7-2.1-3-3.3-5.1-2.6-1 .3-1.9 1.1-2.4 2-.4.7-.5 1.5-.4 2.2l-3.5 1.1c-.8-2-2.3-3.6-4.1-4.6l.7-3.1c2 .1 3.8-1.2 4.2-3.2.5-2.2-1-4.3-3.1-4.8-2.2-.4-4.3 1-4.8 3.2-.4 1.9.6 3.8 2.4 4.6l-.6 2.8c-1-.4-2.1-.6-3.3-.6-5.1 0-9.2 4.2-9.2 9.2s4.2 9.2 9.2 9.2 9.3-4.2 9.3-9.2c0-.8-.1-1.5-.3-2.2l3.4-1.1c.5 1.2 1.6 2 2.9 2.3.7.1 1.4.1 2.1-.1 1-.3 1.9-1.1 2.4-2 .5-1 .5-2.1.2-3.1zm-17.1-9.6c.3-1.4 1.7-2.4 3.2-2.1 1.4.3 2.4 1.7 2.1 3.1s-1.7 2.4-3.2 2.1c-1.5-.2-2.4-1.6-2.1-3.1zm-2.9 23.6c-4.3 0-7.8-3.5-7.8-7.8s3.5-7.7 7.8-7.7c1.4 0 2.7.4 3.8 1 2.3 1.3 3.9 3.8 3.9 6.7.1 4.3-3.4 7.8-7.7 7.8zm18.5-11.6c-.3.6-.9 1.1-1.6 1.3-1.4.4-2.9-.3-3.4-1.7-.2-.7-.2-1.4.1-2s.9-1.1 1.6-1.3c.5-.2.9-.2 1.4-.1.9.2 1.7.8 2 1.8.3.7.2 1.4-.1 2z"/><path d="m9.7 18.6c.2-.1.4-.2.6-.3.2 0 .5 0 .7.1s.4.2.6.4c.1.2.2.4.2.6 0 .1.1.3.2.4.3.2.8.2 1.1 0 .1-.1.2-.2.2-.4 0-.5-.2-.9-.5-1.3s-.8-.7-1.3-.8l-.2-.1v-.3c0-.1-.1-.3-.2-.4-.3-.2-.8-.2-1.1 0-.1.1-.2.3-.2.4v.3l-.2.1c-.6.2-1.1.5-1.5 1-.3.5-.4 1-.3 1.5s.4 1 .9 1.3 1.1.5 1.8.5c.3 0 .6.1.9.3.2.2.4.5.4.8s-.1.6-.4.8c-.5.4-1.3.4-1.7 0-.2-.2-.4-.5-.4-.8 0-.1-.1-.3-.2-.4s-.3-.2-.5-.2-.5.1-.6.2-.2.2-.2.4c0 .5.2.9.5 1.3s.8.7 1.3.8l.2.1v.3c0 .1.1.3.2.4.3.2.8.2 1.1 0 .1-.1.2-.2.2-.4v-.3l.2-.1c.6-.2 1.1-.5 1.5-1 .3-.5.4-1 .3-1.5s-.4-1-.9-1.3-1.1-.5-1.8-.5c-.2 0-.5-.1-.7-.2s-.4-.3-.5-.5-.1-.4-.1-.7c.1-.2.2-.4.4-.5z"/></g></svg>