<svg enable-background="new 0 0 32 32" viewBox="0 0 32 32" xmlns="http://www.w3.org/2000/svg"><g fill="none" stroke="#09b5ca" stroke-miterlimit="10"><circle cx="11.1" cy="5.3" r="1.4" stroke-width="1.6"/><circle cx="21" cy="5.3" r="1.4" stroke-width="1.6"/><path d="m19.8 6.4-1.3 1.7h-5l-1.3-1.7" stroke-linecap="round" stroke-linejoin="round" stroke-width="2"/><g stroke-width="1.6"><circle cx="3.6" cy="9.2" r="1.4"/><circle cx="8.6" cy="16" r="1.4"/><circle cx="23.4" cy="16" r="1.4"/><circle cx="28.4" cy="9.2" r="1.4"/></g><path d="m26.7 9.2h-3.2l-2.5 2.9h-9.9l-2.5-2.9h-3.3" stroke-linecap="round" stroke-linejoin="round" stroke-width="2"/><circle cx="11.1" cy="26.7" r="1.4" stroke-width="1.6"/><circle cx="21" cy="26.7" r="1.4" stroke-width="1.6"/><path d="m19.8 25.5-1.3-1.6h-5l-1.2 1.6" stroke-linecap="round" stroke-linejoin="round" stroke-width="2"/><circle cx="3.6" cy="22.8" r="1.4" stroke-width="1.6"/><circle cx="28.4" cy="22.8" r="1.4" stroke-width="1.6"/><path d="m26.7 22.8h-3.2l-2.5-2.9h-9.9l-2.5 2.9h-3.2" stroke-linecap="round" stroke-linejoin="round" stroke-width="2"/><path d="m21.7 16h-11.4" stroke-linecap="round" stroke-linejoin="round" stroke-width="2"/></g></svg>